# xmcd
#
# Track frame offsets: 
#        150
#        24457
#        52750
#        80547
#        97777
#        114535
#        137070
#        153930
#        186087
#        208392
#
# Disc length: 3003 seconds
#
# Revision: 2
# Processed by: cddbd v1.5.2PL0 Copyright (c) Steve Scherf et al.
# Submitted via: ExactAudioCopy v0.95b4
#
DISCID=7a0bb90a
DTITLE=Willie Murphy - Hustlin' man blues
DYEAR=1998
DGENRE=Blues
TTITLE0=Built for Comfort
TTITLE1=Spoonful
TTITLE2=200 Pounds of Joy
TTITLE3=What daddy Wants (Momma Needs)
TTITLE4=Hustlin' Man Blues
TTITLE5=My Own Fault
TTITLE6=Goodbye Little Girl
TTITLE7=Cry To Me
TTITLE8=My Mama Said
TTITLE9=Reelin and Rockin'
EXTD=
EXTT0=
EXTT1=
EXTT2=
EXTT3=
EXTT4=
EXTT5=
EXTT6=
EXTT7=
EXTT8=
EXTT9=
PLAYORDER=
